<svg version="1.1" id="Layer_1" xmlns="http://www.w3.org/2000/svg" xmlns:xlink="http://www.w3.org/1999/xlink" x="0px" y="0px"
	 width="100%" viewBox="0 0 423 383" enable-background="new 0 0 423 383" xml:space="preserve">
<path fill="#FFFFFE" opacity="1.000000" stroke="none" 
	d="
M244.000000,384.000000 
	C162.666672,384.000000 81.833336,384.000000 1.000000,384.000000 
	C1.000000,256.333344 1.000000,128.666672 1.000000,1.000000 
	C142.000000,1.000000 283.000000,1.000000 424.000000,1.000000 
	C424.000000,128.666672 424.000000,256.333344 424.000000,384.000000 
	C364.166656,384.000000 304.333344,384.000000 244.000000,384.000000 
M62.901604,249.409241 
	C63.687599,245.213089 64.473595,241.016922 65.306908,236.568161 
	C67.897842,236.568161 70.044952,236.568176 72.192070,236.568176 
	C169.345001,236.568176 266.497986,236.601944 363.650818,236.507935 
	C371.964020,236.499893 380.334839,236.107315 388.575470,235.071030 
	C401.075378,233.499130 398.467346,236.396240 398.908691,223.005768 
	C399.008728,219.970642 397.749512,218.724319 395.016388,218.463943 
	C387.242218,217.723251 379.473358,216.488464 371.689087,216.376923 
	C350.865631,216.078552 330.035156,216.280258 309.207550,216.241760 
	C306.599457,216.236938 303.991791,215.982483 301.028717,215.824783 
	C301.028717,210.907089 300.917389,206.444168 301.052948,201.988770 
	C301.299164,193.897385 299.172913,193.905243 309.605377,193.751755 
	C331.756104,193.425858 353.905243,192.971802 376.056824,192.744354 
	C379.535156,192.708633 380.785889,191.544250 380.761749,188.119598 
	C380.719513,182.124573 381.137604,176.126907 381.121155,170.131012 
	C381.048645,143.656708 380.997772,117.181297 380.670288,90.709618 
	C380.605835,85.500221 379.353455,80.305519 378.655426,75.151817 
	C372.013062,74.846687 366.037720,74.354362 360.060669,74.332161 
	C313.069397,74.157684 266.077759,73.977264 219.086411,74.016846 
	C204.180740,74.029404 202.112534,76.332291 202.065140,91.410370 
	C201.975586,119.905991 201.999298,148.402145 202.068726,176.897858 
	C202.076797,180.203552 202.824203,183.501648 202.958755,186.814240 
	C203.145248,191.404556 205.723770,193.950211 209.879471,194.709213 
	C213.944107,195.451569 218.120178,195.865524 222.252487,195.906754 
	C239.915222,196.082993 257.580841,195.997879 275.242249,196.239777 
	C276.869995,196.262100 279.787781,197.815720 279.872437,198.842468 
	C280.332489,204.422806 280.091003,210.060974 280.091003,215.778717 
	C208.155136,215.778717 136.791885,215.778717 65.137192,215.778717 
	C65.137192,203.661591 64.554260,191.992325 65.358162,180.419418 
	C65.832268,173.594162 68.036407,166.758392 70.315689,160.224991 
	C72.725662,153.316986 78.206551,149.179718 85.412773,147.752899 
	C99.922356,144.880020 114.520638,145.406601 129.172836,146.594574 
	C140.173965,147.486557 147.576782,152.902237 151.445114,163.040710 
	C153.692169,168.929977 155.525116,174.989548 157.297928,181.044632 
	C159.953079,190.113373 159.861557,190.053772 169.351135,190.132187 
	C172.150558,190.155334 173.950546,189.522125 173.954636,186.423004 
	C173.963531,179.661057 174.732529,172.782806 173.768280,166.159180 
	C171.019714,147.278778 155.561005,129.795029 137.540924,127.469139 
	C122.479889,125.525169 106.840080,124.794586 91.813942,126.563049 
	C64.424965,129.786530 51.008812,143.070892 46.503765,169.884567 
	C44.342194,182.750061 44.736874,196.046524 44.008926,209.149750 
	C43.903358,211.050018 43.994289,212.961197 43.994289,214.865173 
	C34.116650,216.427765 25.113728,217.999313 16.061504,219.198807 
	C13.152689,219.584244 11.878541,220.514359 12.055523,223.511444 
	C12.230242,226.470215 12.093685,229.447357 12.093685,232.881104 
	C21.092964,234.369202 29.749660,235.913330 38.446869,237.179108 
	C41.588383,237.636322 42.869072,238.737366 43.173279,242.157669 
	C43.816189,249.386154 45.166077,256.551788 46.206566,263.611603 
	C57.964153,265.296936 60.252869,263.731903 62.078838,253.171921 
	C62.248394,252.191360 62.560677,251.235458 62.901604,249.409241 
M214.066162,282.499146 
	C213.997360,276.337799 213.730072,270.169861 213.933090,264.017487 
	C214.057892,260.235901 212.652664,259.201935 209.008194,259.211212 
	C169.054306,259.312836 129.100067,259.269623 89.145935,259.288269 
	C87.857391,259.288849 86.568954,259.529175 85.440544,259.641785 
	C85.440544,265.210846 85.440544,270.444550 85.440544,276.710907 
	C122.155563,276.710907 158.354736,276.710907 194.901718,276.710907 
	C194.901718,285.714844 194.688828,293.682220 194.988297,301.630310 
	C195.146561,305.830353 193.721344,306.958099 189.613098,306.939850 
	C156.137375,306.791107 122.660500,306.922089 89.184479,306.812561 
	C79.998787,306.782532 70.987930,305.568359 62.608101,301.252014 
	C58.096504,298.928101 53.353592,297.053314 48.220310,294.754272 
	C47.728310,304.887482 47.273151,314.261810 46.767860,324.668732 
	C61.911789,324.668732 76.197273,324.717712 90.482315,324.659363 
	C129.946762,324.498199 169.410995,324.221863 208.875412,324.206360 
	C213.094040,324.204681 213.863907,322.595612 213.849350,318.967834 
	C213.801865,307.145447 213.985733,295.322144 214.066162,282.499146 
M102.780930,110.822037 
	C112.561653,113.588120 121.659851,111.339638 130.019943,106.331245 
	C143.596283,98.197884 151.365219,86.078316 150.528183,70.090981 
	C149.302185,46.674641 130.999863,34.910995 113.931679,33.738953 
	C83.566368,31.653818 63.145931,56.884846 72.923737,85.731491 
	C77.623283,99.596191 88.732544,106.501610 102.780930,110.822037 
z"/>
<path fill="#F3D437" opacity="1.000000" stroke="none" 
	d="
M62.854149,249.838684 
	C62.560677,251.235458 62.248394,252.191360 62.078838,253.171921 
	C60.252869,263.731903 57.964153,265.296936 46.206566,263.611603 
	C45.166077,256.551788 43.816189,249.386154 43.173279,242.157669 
	C42.869072,238.737366 41.588383,237.636322 38.446869,237.179108 
	C29.749660,235.913330 21.092964,234.369202 12.093685,232.881104 
	C12.093685,229.447357 12.230242,226.470215 12.055523,223.511444 
	C11.878541,220.514359 13.152689,219.584244 16.061504,219.198807 
	C25.113728,217.999313 34.116650,216.427765 43.994289,214.865173 
	C43.994289,212.961197 43.903358,211.050018 44.008926,209.149750 
	C44.736874,196.046524 44.342194,182.750061 46.503765,169.884567 
	C51.008812,143.070892 64.424965,129.786530 91.813942,126.563049 
	C106.840080,124.794586 122.479889,125.525169 137.540924,127.469139 
	C155.561005,129.795029 171.019714,147.278778 173.768280,166.159180 
	C174.732529,172.782806 173.963531,179.661057 173.954636,186.423004 
	C173.950546,189.522125 172.150558,190.155334 169.351135,190.132187 
	C159.861557,190.053772 159.953079,190.113373 157.297928,181.044632 
	C155.525116,174.989548 153.692169,168.929977 151.445114,163.040710 
	C147.576782,152.902237 140.173965,147.486557 129.172836,146.594574 
	C114.520638,145.406601 99.922356,144.880020 85.412773,147.752899 
	C78.206551,149.179718 72.725662,153.316986 70.315689,160.224991 
	C68.036407,166.758392 65.832268,173.594162 65.358162,180.419418 
	C64.554260,191.992325 65.137192,203.661591 65.137192,215.778717 
	C136.791885,215.778717 208.155136,215.778717 280.091003,215.778717 
	C280.091003,210.060974 280.332489,204.422806 279.872437,198.842468 
	C279.787781,197.815720 276.869995,196.262100 275.242249,196.239777 
	C257.580841,195.997879 239.915222,196.082993 222.252487,195.906754 
	C218.120178,195.865524 213.944107,195.451569 209.879471,194.709213 
	C205.723770,193.950211 203.145248,191.404556 202.958755,186.814240 
	C202.824203,183.501648 202.076797,180.203552 202.068726,176.897858 
	C201.999298,148.402145 201.975586,119.905991 202.065140,91.410370 
	C202.112534,76.332291 204.180740,74.029404 219.086411,74.016846 
	C266.077759,73.977264 313.069397,74.157684 360.060669,74.332161 
	C366.037720,74.354362 372.013062,74.846687 378.655426,75.151817 
	C379.353455,80.305519 380.605835,85.500221 380.670288,90.709618 
	C380.997772,117.181297 381.048645,143.656708 381.121155,170.131012 
	C381.137604,176.126907 380.719513,182.124573 380.761749,188.119598 
	C380.785889,191.544250 379.535156,192.708633 376.056824,192.744354 
	C353.905243,192.971802 331.756104,193.425858 309.605377,193.751755 
	C299.172913,193.905243 301.299164,193.897385 301.052948,201.988770 
	C300.917389,206.444168 301.028717,210.907089 301.028717,215.824783 
	C303.991791,215.982483 306.599457,216.236938 309.207550,216.241760 
	C330.035156,216.280258 350.865631,216.078552 371.689087,216.376923 
	C379.473358,216.488464 387.242218,217.723251 395.016388,218.463943 
	C397.749512,218.724319 399.008728,219.970642 398.908691,223.005768 
	C398.467346,236.396240 401.075378,233.499130 388.575470,235.071030 
	C380.334839,236.107315 371.964020,236.499893 363.650818,236.507935 
	C266.497986,236.601944 169.345001,236.568176 72.192070,236.568176 
	C70.044952,236.568176 67.897842,236.568161 65.306908,236.568161 
	C64.473595,241.016922 63.687599,245.213089 62.854149,249.838684 
M351.445129,92.858467 
	C342.296478,92.611359 333.148651,92.194130 323.999023,92.149269 
	C297.361145,92.018669 270.721802,91.916389 244.084732,92.079491 
	C237.177399,92.121780 230.276276,93.177368 222.793762,93.816978 
	C222.793762,121.546547 222.793762,148.696335 222.793762,175.931030 
	C224.323364,176.074203 225.136444,176.216660 225.949554,176.216904 
	C268.904053,176.229843 311.858612,176.199188 354.812897,176.295578 
	C358.089752,176.302933 359.232971,175.142120 359.296143,172.013763 
	C359.715698,151.235153 360.311371,130.459686 360.636078,109.679848 
	C360.720917,104.249863 360.049164,98.808060 359.694305,92.859215 
	C356.998138,92.859215 354.710693,92.859215 351.445129,92.858467 
z"/>
<path fill="#F3D438" opacity="1.000000" stroke="none" 
	d="
M214.073364,282.999146 
	C213.985733,295.322144 213.801865,307.145447 213.849350,318.967834 
	C213.863907,322.595612 213.094040,324.204681 208.875412,324.206360 
	C169.410995,324.221863 129.946762,324.498199 90.482315,324.659363 
	C76.197273,324.717712 61.911789,324.668732 46.767860,324.668732 
	C47.273151,314.261810 47.728310,304.887482 48.220310,294.754272 
	C53.353592,297.053314 58.096504,298.928101 62.608101,301.252014 
	C70.987930,305.568359 79.998787,306.782532 89.184479,306.812561 
	C122.660500,306.922089 156.137375,306.791107 189.613098,306.939850 
	C193.721344,306.958099 195.146561,305.830353 194.988297,301.630310 
	C194.688828,293.682220 194.901718,285.714844 194.901718,276.710907 
	C158.354736,276.710907 122.155563,276.710907 85.440544,276.710907 
	C85.440544,270.444550 85.440544,265.210846 85.440544,259.641785 
	C86.568954,259.529175 87.857391,259.288849 89.145935,259.288269 
	C129.100067,259.269623 169.054306,259.312836 209.008194,259.211212 
	C212.652664,259.201935 214.057892,260.235901 213.933090,264.017487 
	C213.730072,270.169861 213.997360,276.337799 214.073364,282.999146 
z"/>
<path fill="#F3D436" opacity="1.000000" stroke="none" 
	d="
M102.370132,110.763771 
	C88.732544,106.501610 77.623283,99.596191 72.923737,85.731491 
	C63.145931,56.884846 83.566368,31.653818 113.931679,33.738953 
	C130.999863,34.910995 149.302185,46.674641 150.528183,70.090981 
	C151.365219,86.078316 143.596283,98.197884 130.019943,106.331245 
	C121.659851,111.339638 112.561653,113.588120 102.370132,110.763771 
M104.636925,52.886177 
	C91.868660,55.987133 88.968788,66.658043 91.511406,77.807648 
	C93.947601,88.490593 104.724930,94.381165 115.460373,91.594406 
	C125.752922,88.922630 133.040878,77.516167 130.557007,67.966492 
	C127.547623,56.396370 116.842003,49.913406 104.636925,52.886177 
z"/>
<path fill="#FFFFFE" opacity="1.000000" stroke="none" 
	d="
M351.934174,92.858841 
	C354.710693,92.859215 356.998138,92.859215 359.694305,92.859215 
	C360.049164,98.808060 360.720917,104.249863 360.636078,109.679848 
	C360.311371,130.459686 359.715698,151.235153 359.296143,172.013763 
	C359.232971,175.142120 358.089752,176.302933 354.812897,176.295578 
	C311.858612,176.199188 268.904053,176.229843 225.949554,176.216904 
	C225.136444,176.216660 224.323364,176.074203 222.793762,175.931030 
	C222.793762,148.696335 222.793762,121.546547 222.793762,93.816978 
	C230.276276,93.177368 237.177399,92.121780 244.084732,92.079491 
	C270.721802,91.916389 297.361145,92.018669 323.999023,92.149269 
	C333.148651,92.194130 342.296478,92.611359 351.934174,92.858841 
z"/>
<path fill="#FFFEFC" opacity="1.000000" stroke="none" 
	d="
M105.049332,52.827904 
	C116.842003,49.913406 127.547623,56.396370 130.557007,67.966492 
	C133.040878,77.516167 125.752922,88.922630 115.460373,91.594406 
	C104.724930,94.381165 93.947601,88.490593 91.511406,77.807648 
	C88.968788,66.658043 91.868660,55.987133 105.049332,52.827904 
z"/>
</svg>